<svg version="1.1" id="Layer_1" xmlns="http://www.w3.org/2000/svg" xmlns:xlink="http://www.w3.org/1999/xlink" x="0px" y="0px"
	 width="100%" viewBox="0 0 204 192" enable-background="new 0 0 204 192" xml:space="preserve">
<path fill="#020202" opacity="1.000000" stroke="none" 
	d="
M180.000000,193.000000 
	C128.645767,193.000000 77.291542,193.000000 25.393822,192.651062 
	C16.930668,188.172714 11.623305,181.610168 7.571051,173.432755 
	C6.273553,169.693329 5.039852,166.340317 3.859663,162.571365 
	C3.655767,157.010605 3.187196,151.866241 3.175608,146.720856 
	C3.106271,115.932762 3.123285,85.144424 3.152969,54.356209 
	C3.163439,43.496464 1.989280,32.476997 7.434667,22.125982 
	C8.578597,19.826424 9.374346,17.634882 10.519062,15.374786 
	C13.273005,13.273026 15.677983,11.239820 18.417322,9.107508 
	C22.834455,6.338935 26.917227,3.669467 31.000000,1.000000 
	C78.687561,1.000000 126.375122,1.000000 174.578400,1.364270 
	C178.981567,3.857394 182.869019,5.986247 186.899155,8.424898 
	C196.706497,16.533220 201.259766,27.042868 203.032532,39.461121 
	C202.989059,74.843674 202.901230,109.761215 203.089203,144.677261 
	C203.141449,154.380692 202.665817,163.888016 198.769287,173.256378 
	C195.041077,178.147537 191.529449,182.776367 187.763184,187.448761 
	C186.911697,188.097824 186.314865,188.703323 185.399078,189.448090 
	C183.386765,190.724899 181.693390,191.862457 180.000000,193.000000 
M38.627094,159.851501 
	C44.995670,166.647125 52.678467,171.154541 61.983700,172.180725 
	C88.556091,175.111145 115.264519,175.118744 141.764496,172.487747 
	C162.734528,170.405762 176.960358,155.317688 177.734818,135.315750 
	C178.654846,111.554153 178.704010,87.703819 177.804382,63.942142 
	C176.891037,39.818398 161.547424,24.251503 137.721909,23.280085 
	C114.608032,22.337679 91.396057,22.343859 68.281593,23.278908 
	C44.640205,24.235271 29.084017,40.141804 28.157347,63.437389 
	C27.323841,84.390892 27.233160,105.389641 27.434044,126.362503 
	C27.548216,138.282227 29.732536,149.917801 38.627094,159.851501 
z"/>
<path fill="#ECECEC" opacity="1.000000" stroke="none" 
	d="
M7.086485,22.233999 
	C1.989280,32.476997 3.163439,43.496464 3.152969,54.356209 
	C3.123285,85.144424 3.106271,115.932762 3.175608,146.720856 
	C3.187196,151.866241 3.655767,157.010605 3.628254,162.470139 
	C2.562221,162.856552 1.781110,162.928268 1.000000,163.000000 
	C1.000000,115.979103 1.000000,68.958206 1.415940,21.470722 
	C3.583415,21.414087 5.334950,21.824043 7.086485,22.233999 
z"/>
<path fill="#E6E6E6" opacity="1.000000" stroke="none" 
	d="
M198.985855,172.994080 
	C202.665817,163.888016 203.141449,154.380692 203.089203,144.677261 
	C202.901230,109.761215 202.989059,74.843674 203.350464,39.462593 
	C204.152176,38.998997 204.576096,38.999496 205.000000,39.000000 
	C205.000000,83.687561 205.000000,128.375122 204.608368,173.523102 
	C202.473114,173.653702 200.729492,173.323883 198.985855,172.994080 
z"/>
<path fill="#EEEEEE" opacity="1.000000" stroke="none" 
	d="
M205.000000,38.531345 
	C204.576096,38.999496 204.152176,38.998997 203.410339,38.997025 
	C201.259766,27.042868 196.706497,16.533220 187.202850,8.202359 
	C187.575500,6.449236 187.787140,5.228451 188.426102,4.005344 
	C190.652771,3.991713 192.532852,4.283664 194.215942,3.835624 
	C195.006226,3.625245 195.417145,1.989694 196.000000,0.999998 
	C198.666672,1.000000 201.338226,0.922011 203.994415,1.088912 
	C204.368149,1.112396 204.666672,2.333334 204.551193,3.500378 
	C203.609894,4.000855 203.113815,4.039776 202.625473,3.994826 
	C199.163040,3.676123 196.784378,3.922158 196.824570,8.703786 
	C196.864456,13.450615 199.487885,13.109592 202.537674,13.002295 
	C203.357468,12.973453 204.179169,12.999272 205.000000,13.000000 
	C205.000000,21.354231 205.000000,29.708464 205.000000,38.531345 
z"/>
<path fill="#F0F0F0" opacity="1.000000" stroke="none" 
	d="
M7.634848,173.819153 
	C11.623305,181.610168 16.930668,188.172714 24.925163,192.651062 
	C17.647058,193.000000 10.293883,193.025116 2.941580,192.956573 
	C2.291465,192.950500 1.647052,192.333344 1.448721,191.498413 
	C2.389692,190.996429 2.885509,190.957153 3.373608,191.001953 
	C6.833083,191.319519 9.212304,191.076721 9.171478,186.295975 
	C9.130963,181.551453 6.509130,181.892853 3.461059,181.999725 
	C2.641710,182.028458 1.820407,182.001434 1.000000,182.000000 
	C1.000000,179.629440 1.000000,177.258896 1.472233,174.445450 
	C3.841259,173.941422 5.738053,173.880280 7.634848,173.819153 
z"/>
<path fill="#FBFBFB" opacity="1.000000" stroke="none" 
	d="
M198.769287,173.256378 
	C200.729492,173.323883 202.473114,173.653702 204.608368,173.991760 
	C205.000000,176.370560 205.000000,178.741104 204.551102,181.557098 
	C196.986389,182.013412 196.986328,182.013412 196.994339,189.085754 
	C196.995819,190.390503 196.998093,191.695251 197.000000,193.000000 
	C191.645065,193.000000 186.290146,193.000000 180.467621,193.000000 
	C181.693390,191.862457 183.386765,190.724899 185.539490,189.756165 
	C186.671814,189.085068 187.344818,188.245132 188.017822,187.405197 
	C191.529449,182.776367 195.041077,178.147537 198.769287,173.256378 
z"/>
<path fill="#F0F0F0" opacity="1.000000" stroke="none" 
	d="
M1.000000,13.000000 
	C1.000000,9.114044 1.000000,5.228088 1.000000,1.000000 
	C2.654114,1.000000 4.327585,1.000000 6.545555,1.318273 
	C8.054518,2.417555 9.018982,3.198565 9.991264,3.989185 
	C9.999083,3.998796 9.997170,3.997900 9.995513,4.424992 
	C9.660946,7.564230 9.328036,10.276377 8.551281,12.989651 
	C5.738290,12.993853 3.369145,12.996926 1.000000,13.000000 
z"/>
<path fill="#F0F0F0" opacity="1.000000" stroke="none" 
	d="
M197.494736,193.000000 
	C196.998093,191.695251 196.995819,190.390503 196.994339,189.085754 
	C196.986328,182.013412 196.986389,182.013412 204.551102,182.001266 
	C205.000000,185.569656 205.000000,189.139313 205.000000,193.000000 
	C202.667175,193.000000 200.328323,193.000000 197.494736,193.000000 
z"/>
<path fill="#FEFEFE" opacity="1.000000" stroke="none" 
	d="
M205.000000,12.550020 
	C204.179169,12.999272 203.357468,12.973453 202.537674,13.002295 
	C199.487885,13.109592 196.864456,13.450615 196.824570,8.703786 
	C196.784378,3.922158 199.163040,3.676123 202.625473,3.994826 
	C203.113815,4.039776 203.609894,4.000855 204.551193,4.000378 
	C205.000000,6.700014 205.000000,9.400027 205.000000,12.550020 
z"/>
<path fill="#FEFEFE" opacity="1.000000" stroke="none" 
	d="
M1.000000,182.449982 
	C1.820407,182.001434 2.641710,182.028458 3.461059,181.999725 
	C6.509130,181.892853 9.130963,181.551453 9.171478,186.295975 
	C9.212304,191.076721 6.833083,191.319519 3.373608,191.001953 
	C2.885509,190.957153 2.389692,190.996429 1.448724,190.998398 
	C1.000000,188.299988 1.000000,185.599976 1.000000,182.449982 
z"/>
<path fill="#FEFEFE" opacity="1.000000" stroke="none" 
	d="
M1.000000,13.444164 
	C3.369145,12.996926 5.738290,12.993853 8.692101,13.300301 
	C9.574542,14.220995 9.872318,14.832168 10.170094,15.443340 
	C9.374346,17.634882 8.578597,19.826424 7.434667,22.125982 
	C5.334950,21.824043 3.583415,21.414087 1.415940,21.002066 
	C1.000000,18.629442 1.000000,16.258884 1.000000,13.444164 
z"/>
<path fill="#EDEDED" opacity="1.000000" stroke="none" 
	d="
M30.536816,1.000000 
	C26.917227,3.669467 22.834455,6.338935 18.397789,8.672866 
	C18.031672,6.886261 18.019449,5.435193 18.003639,3.612113 
	C18.000036,2.493400 18.000019,1.746700 18.000000,1.000000 
	C22.024544,1.000000 26.049089,1.000000 30.536816,1.000000 
z"/>
<path fill="#F8F8F8" opacity="1.000000" stroke="none" 
	d="
M7.571051,173.432755 
	C5.738053,173.880280 3.841259,173.941422 1.472233,174.001282 
	C1.000000,170.638718 1.000000,167.277420 1.000000,163.458069 
	C1.781110,162.928268 2.562221,162.856552 3.574741,162.886063 
	C5.039852,166.340317 6.273553,169.693329 7.571051,173.432755 
z"/>
<path fill="#F2F2F2" opacity="1.000000" stroke="none" 
	d="
M187.998779,4.007667 
	C187.787140,5.228451 187.575500,6.449236 187.060165,7.892560 
	C182.869019,5.986247 178.981567,3.857394 175.047058,1.364270 
	C179.024551,1.000000 183.049088,1.000000 187.537323,1.375863 
	C188.000259,2.503707 187.999512,3.255687 187.998779,4.007667 
z"/>
<path fill="#FFFFFF" opacity="1.000000" stroke="none" 
	d="
M188.426086,4.005344 
	C187.999512,3.255687 188.000259,2.503707 188.000488,1.375863 
	C190.370560,1.000000 192.741104,1.000000 195.555832,0.999998 
	C195.417145,1.989694 195.006226,3.625245 194.215942,3.835624 
	C192.532852,4.283664 190.652771,3.991713 188.426086,4.005344 
z"/>
<path fill="#F1F1F1" opacity="1.000000" stroke="none" 
	d="
M17.625000,1.000000 
	C18.000019,1.746700 18.000036,2.493400 17.626945,3.617973 
	C16.500614,3.992934 15.747389,3.990022 14.996907,3.613930 
	C14.999767,2.493834 14.999884,1.746917 15.000000,1.000000 
	C15.750000,1.000000 16.500000,1.000000 17.625000,1.000000 
z"/>
<path fill="#F1F1F1" opacity="1.000000" stroke="none" 
	d="
M10.000000,1.000000 
	C10.750000,1.000000 11.500000,1.000000 12.625062,1.373592 
	C13.002028,2.493824 13.003933,3.240463 12.629739,3.991869 
	C11.501483,3.997057 10.749327,3.997478 9.997170,3.997900 
	C9.997170,3.997900 9.999083,3.998796 9.996363,3.617229 
	C9.995763,2.490442 9.997882,1.745221 10.000000,1.000000 
z"/>
<path fill="#EDEDED" opacity="1.000000" stroke="none" 
	d="
M9.625000,1.000000 
	C9.997882,1.745221 9.995763,2.490442 9.988544,3.607619 
	C9.018982,3.198565 8.054518,2.417555 7.045027,1.318273 
	C7.750000,1.000000 8.500000,1.000000 9.625000,1.000000 
z"/>
<path fill="#EDEDED" opacity="1.000000" stroke="none" 
	d="
M13.005838,3.987103 
	C13.003933,3.240463 13.002028,2.493824 13.000062,1.373592 
	C13.444661,1.000000 13.889323,1.000000 14.666992,1.000000 
	C14.999884,1.746917 14.999767,2.493834 14.665562,3.616730 
	C13.889595,3.990840 13.447717,3.988971 13.005838,3.987103 
z"/>
<path fill="#F8F8F8" opacity="1.000000" stroke="none" 
	d="
M38.390617,159.587036 
	C29.732536,149.917801 27.548216,138.282227 27.434044,126.362503 
	C27.233160,105.389641 27.323841,84.390892 28.157347,63.437389 
	C29.084017,40.141804 44.640205,24.235271 68.281593,23.278908 
	C91.396057,22.343859 114.608032,22.337679 137.721909,23.280085 
	C161.547424,24.251503 176.891037,39.818398 177.804382,63.942142 
	C178.704010,87.703819 178.654846,111.554153 177.734818,135.315750 
	C176.960358,155.317688 162.734528,170.405762 141.764496,172.487747 
	C115.264519,175.118744 88.556091,175.111145 61.983700,172.180725 
	C52.678467,171.154541 44.995670,166.647125 38.390617,159.587036 
M131.095367,159.771439 
	C133.088837,159.632278 135.082947,159.501938 137.075653,159.352554 
	C153.361450,158.131516 163.395355,149.193649 163.949310,132.831055 
	C164.742722,109.395508 164.595871,85.896774 163.895172,62.453571 
	C163.463928,48.024971 153.493622,38.639145 139.038452,37.212936 
	C132.756454,36.593128 126.408096,36.373676 120.092842,36.415726 
	C102.446960,36.533215 84.774559,36.358189 67.166351,37.301510 
	C52.439327,38.090477 42.546162,47.956230 42.091045,62.750587 
	C41.374996,86.026833 41.205399,109.362495 42.032505,132.629349 
	C42.632137,149.497147 52.742928,158.746185 69.727364,159.274323 
	C89.858711,159.900299 110.015877,159.696350 131.095367,159.771439 
z"/>
<path fill="#FBFBFB" opacity="1.000000" stroke="none" 
	d="
M12.629739,3.991869 
	C13.447717,3.988971 13.889595,3.990840 14.662819,3.989909 
	C15.747389,3.990022 16.500614,3.992934 17.630531,3.989985 
	C18.019449,5.435193 18.031672,6.886261 18.063427,8.771971 
	C15.677983,11.239820 13.273005,13.273026 10.519062,15.374786 
	C9.872318,14.832168 9.574542,14.220995 9.135946,13.299172 
	C9.328036,10.276377 9.660946,7.564230 9.995513,4.424992 
	C10.749327,3.997478 11.501483,3.997057 12.629739,3.991869 
z"/>
<path fill="#F5F5F5" opacity="1.000000" stroke="none" 
	d="
M187.763184,187.448761 
	C187.344818,188.245132 186.671814,189.085068 185.858414,189.616913 
	C186.314865,188.703323 186.911697,188.097824 187.763184,187.448761 
z"/>
<path fill="#030303" opacity="1.000000" stroke="none" 
	d="
M130.628601,159.811768 
	C110.015877,159.696350 89.858711,159.900299 69.727364,159.274323 
	C52.742928,158.746185 42.632137,149.497147 42.032505,132.629349 
	C41.205399,109.362495 41.374996,86.026833 42.091045,62.750587 
	C42.546162,47.956230 52.439327,38.090477 67.166351,37.301510 
	C84.774559,36.358189 102.446960,36.533215 120.092842,36.415726 
	C126.408096,36.373676 132.756454,36.593128 139.038452,37.212936 
	C153.493622,38.639145 163.463928,48.024971 163.895172,62.453571 
	C164.595871,85.896774 164.742722,109.395508 163.949310,132.831055 
	C163.395355,149.193649 153.361450,158.131516 137.075653,159.352554 
	C135.082947,159.501938 133.088837,159.632278 130.628601,159.811768 
M131.345612,124.833168 
	C138.623672,116.853683 142.466324,107.555923 141.870956,96.669067 
	C141.011261,80.949165 133.335312,69.389824 119.185638,62.920845 
	C104.610161,56.257191 90.411423,58.104874 78.031082,68.474319 
	C66.187584,78.394127 61.525856,91.529388 65.000427,106.533073 
	C72.327583,138.172760 110.121384,146.690994 131.345612,124.833168 
M145.088730,48.985142 
	C138.943115,48.905022 135.154251,51.440094 134.247589,56.238804 
	C133.456970,60.423313 135.792603,64.633957 139.830811,66.304169 
	C144.385651,68.188057 149.409790,66.288200 151.651581,61.834202 
	C154.119965,56.929989 152.061172,52.382729 145.088730,48.985142 
z"/>
<path fill="#F8F8F8" opacity="1.000000" stroke="none" 
	d="
M131.103271,125.096008 
	C110.121384,146.690994 72.327583,138.172760 65.000427,106.533073 
	C61.525856,91.529388 66.187584,78.394127 78.031082,68.474319 
	C90.411423,58.104874 104.610161,56.257191 119.185638,62.920845 
	C133.335312,69.389824 141.011261,80.949165 141.870956,96.669067 
	C142.466324,107.555923 138.623672,116.853683 131.103271,125.096008 
M94.174606,121.684814 
	C104.018654,124.915451 113.043716,123.372200 120.516319,116.166756 
	C127.318611,109.607674 129.874969,101.310188 127.412735,92.052330 
	C124.273155,80.247742 114.057755,72.704636 102.440254,73.086784 
	C90.515167,73.479065 80.102798,82.230133 78.060760,93.576530 
	C75.969490,105.196480 81.999832,116.069618 94.174606,121.684814 
z"/>
<path fill="#F4F4F4" opacity="1.000000" stroke="none" 
	d="
M145.487595,49.042984 
	C152.061172,52.382729 154.119965,56.929989 151.651581,61.834202 
	C149.409790,66.288200 144.385651,68.188057 139.830811,66.304169 
	C135.792603,64.633957 133.456970,60.423313 134.247589,56.238804 
	C135.154251,51.440094 138.943115,48.905022 145.487595,49.042984 
z"/>
<path fill="#020202" opacity="1.000000" stroke="none" 
	d="
M93.817055,121.513184 
	C81.999832,116.069618 75.969490,105.196480 78.060760,93.576530 
	C80.102798,82.230133 90.515167,73.479065 102.440254,73.086784 
	C114.057755,72.704636 124.273155,80.247742 127.412735,92.052330 
	C129.874969,101.310188 127.318611,109.607674 120.516319,116.166756 
	C113.043716,123.372200 104.018654,124.915451 93.817055,121.513184 
z"/>
</svg>